<svg width="249" height="48" viewBox="0 0 249 48" version="1.1" xmlns="http://www.w3.org/2000/svg" xmlns:xlink="http://www.w3.org/1999/xlink">
<title>LOGO</title>
<desc>Created using Figma</desc>
<g id="Canvas" transform="translate(1632 283)">
<g id="LOGO">
<g id="Group">
<g id="Vector">
<use xlink:href="#path0_fill" transform="translate(-1564.43 -269.889)" fill="#74878E"/>
</g>
<g id="Vector">
<use xlink:href="#path1_fill" transform="translate(-1534.99 -261.667)" fill="#74878E"/>
</g>
<g id="Vector">
<use xlink:href="#path2_fill" transform="translate(-1509.7 -261)" fill="#74878E"/>
</g>
<g id="Vector">
<use xlink:href="#path3_fill" transform="translate(-1490.09 -269.222)" fill="#74878E"/>
</g>
<g id="Vector">
<use xlink:href="#path4_fill" transform="translate(-1460.51 -261.444)" fill="#74878E"/>
</g>
<g id="Vector">
<use xlink:href="#path5_fill" transform="translate(-1435 -271.889)" fill="#74878E"/>
</g>
<g id="Vector">
<use xlink:href="#path6_fill" transform="translate(-1406.8 -261.222)" fill="#74878E"/>
</g>
</g>
<g id="Vector">
<use xlink:href="#path7_fill" transform="translate(-1632 -272.778)" fill="#74878E"/>
</g>
<g id="Vector" opacity="0.64">
<use xlink:href="#path8_fill" transform="translate(-1618.12 -283)" fill="#25A9E0"/>
</g>
</g>
</g>
<defs>
<path id="path0_fill" d="M 29.3898 11.7778L 24.3216 11.7778L 24.542 7.33333C 24.1013 6.66667 23.2198 6.22222 22.3384 5.77778C 21.457 5.33333 20.1349 5.11111 18.8128 5.11111C 15.9482 5.11111 13.3039 6.22222 11.3207 8.22222C 9.33754 10.4444 8.01542 13.1111 7.13401 16.6667L 7.13401 18C 6.47295 21.5556 6.6933 24.2222 7.79507 26.4444C 8.89684 28.6667 10.88 29.7778 13.7446 29.7778C 15.0668 29.7778 16.3889 29.5556 17.4906 29.1111C 18.5924 28.6667 19.6942 28.2222 20.3552 27.5556L 21.8977 23.1111L 27.1862 23.1111L 25.8641 29.7778C 24.1013 31.3333 22.1181 32.6667 19.9145 33.5556C 17.4906 34.4444 15.0667 34.8889 12.4225 34.8889C 7.79506 34.8889 4.48976 33.3333 2.28622 30.2222C 0.0826782 27.1111 -0.578386 23.1111 0.523384 18L 0.743738 16.8889C 1.84551 12 4.04905 8 7.57471 4.66667C 11.1004 1.55556 15.2871 2.11928e-07 19.6942 2.11928e-07C 22.3384 2.11928e-07 24.542 0.444445 26.5252 1.33333C 28.5083 2.22222 29.8305 3.55556 30.9322 5.11111L 29.3898 11.7778Z"/>
<path id="path1_fill" d="M 14.7122 26.2222C 14.7122 25.7778 14.4919 25.3333 14.4919 24.8889C 14.4919 24.4444 14.4919 24 14.4919 23.5556C 13.3901 24.4444 12.2884 25.3333 10.9662 25.7778C 9.6441 26.4444 8.32197 26.6667 6.7795 26.6667C 4.3556 26.6667 2.37242 26 1.27065 24.6667C 0.168877 23.3333 -0.271831 21.5556 0.168877 19.1111C 0.609585 16.6667 1.93172 14.8889 4.13526 13.5556C 6.3388 12.2222 9.2034 11.5556 12.9494 11.5556L 16.4751 11.5556L 16.9158 9.11111C 17.1361 8 16.9158 6.88889 16.4751 6.22222C 15.814 5.55555 14.9326 5.11111 13.6105 5.11111C 12.7291 5.11111 12.068 5.11111 11.4069 5.33333C 10.7459 5.55556 10.3052 5.77778 9.86446 6L 8.76269 8.66667L 3.69455 8.66667L 4.79632 3.11111C 6.11844 2.22222 7.88127 1.55556 9.42375 0.888889C 11.1866 0.222222 12.9494 8.4771e-07 14.9326 8.4771e-07C 18.0176 8.4771e-07 20.4414 0.666667 21.9839 2.22222C 23.5264 3.77778 24.1875 6 23.5264 8.66667L 21.3229 19.1111C 21.3229 19.5556 21.1025 19.7778 21.1025 20.2222C 21.1025 20.6667 21.1025 20.8889 20.8822 21.1111L 22.8653 21.3333L 21.9839 25.3333L 14.7122 25.3333L 14.7122 26.2222ZM 9.86446 21.5556C 10.9662 21.5556 11.8476 21.3333 12.7291 20.8889C 13.6105 20.4444 14.4919 20 14.9326 19.1111L 15.814 15.3333L 12.2883 15.3333C 10.7459 15.3333 9.6441 15.7778 8.76269 16.4444C 7.88127 17.1111 7.44056 18 7.22021 18.8889C 6.99985 19.7778 7.22021 20.4444 7.66092 20.8889C 8.10162 21.3333 8.76269 21.5556 9.86446 21.5556Z"/>
<path id="path2_fill" d="M 0.881419 21.3333L 4.18673 20.6667L 7.49204 5.11111L 3.96637 4.44444L 4.84779 0.444445L 14.7637 0.444445L 14.323 4.22222C 15.2044 2.88889 16.0858 2 17.1876 1.11111C 18.2894 0.444444 19.3912 -8.4771e-07 20.7133 -8.4771e-07C 21.154 -8.4771e-07 21.3743 -8.4771e-07 21.815 -8.4771e-07C 22.2558 -8.4771e-07 22.4761 0.222222 22.6965 0.222222L 20.9336 6.22222L 18.069 6.22222C 16.9673 6.22222 16.3062 6.44444 15.4248 6.88889C 14.7637 7.33333 14.1027 7.77778 13.6619 8.44444L 11.238 20.6667L 14.323 21.3333L 13.4416 25.3333L 0 25.3333L 0.881419 21.3333Z"/>
<path id="path3_fill" d="M 3.36234e-06 33.7778L 0.881423 29.7778L 4.62743 29.1111L 9.69558 4.66667L 6.1699 4L 7.05132 -4.23855e-07L 10.577 -4.23855e-07L 17.408 -4.23855e-07L 21.154 -4.23855e-07L 20.2726 4L 16.5266 4.66667L 11.4584 28.4444L 21.154 28.4444L 22.2558 24.2222L 27.5443 24.2222L 25.5611 33.7778L 3.36234e-06 33.7778Z"/>
<path id="path4_fill" d="M 14.7122 26C 14.7122 25.5556 14.4919 25.1111 14.4919 24.6667C 14.4919 24.2222 14.4919 23.7778 14.4919 23.3333C 13.3901 24.2222 12.2884 25.1111 10.9662 25.5556C 9.64411 26.2222 8.32198 26.4444 6.7795 26.4444C 4.35561 26.4444 2.37242 25.7778 1.27065 24.4444C 0.168884 23.1111 -0.271824 21.3333 0.168884 18.8889C 0.609592 16.4444 1.93171 14.6667 4.13525 13.3333C 6.33879 12 9.20339 11.3333 12.9494 11.3333L 16.4751 11.3333L 16.9158 8.88889C 17.1361 7.77778 16.9158 6.66667 16.4751 6C 16.0344 5.55555 14.9326 5.11111 13.6105 5.11111C 12.7291 5.11111 12.068 5.11111 11.4069 5.33333C 10.7459 5.55556 10.3052 5.77778 9.86446 6L 8.76269 8.66667L 3.69454 8.66667L 4.79631 3.11111C 6.11844 2.22222 7.88127 1.55556 9.42374 0.88889C 11.1866 0.222223 12.9494 -4.23855e-07 14.9326 -4.23855e-07C 18.0175 -4.23855e-07 20.4415 0.666666 21.9839 2.22222C 23.5264 3.77778 24.1875 6 23.5264 8.66667L 21.3229 19.1111C 21.3229 19.5556 21.1025 19.7778 21.1025 20.2222C 21.1025 20.6667 21.1025 20.8889 20.8822 21.1111L 22.8653 21.3333L 22.4246 26L 14.7122 26ZM 9.6441 21.3333C 10.7459 21.3333 11.6273 21.1111 12.5087 20.6667C 13.3901 20.2222 14.2715 19.7778 14.7122 18.8889L 15.5937 15.1111L 12.068 15.1111C 10.5255 15.1111 9.42374 15.5556 8.54233 16.2222C 7.66091 16.8889 7.22021 17.7778 6.99985 18.6667C 6.7795 19.5556 6.99985 20.2222 7.44056 20.6667C 7.88126 21.1111 8.76268 21.3333 9.6441 21.3333Z"/>
<path id="path5_fill" d="M 25.3407 24.4444C 24.4593 28.2222 23.1372 31.1111 20.9336 33.5556C 18.7301 35.7778 16.0858 36.8889 13.0009 36.8889C 11.4584 36.8889 10.3566 36.6667 9.25486 36C 8.37345 35.3333 7.49203 34.4444 7.05132 33.3333L 5.94955 36.4444L 3.36234e-06 36.4444L 6.61062 4.88889L 3.08496 4.22222L 3.96637 0L 14.5434 0L 11.6788 13.7778C 12.5602 12.6667 13.6619 12 14.7637 11.5556C 15.8655 11.1111 17.1876 10.6667 18.5097 10.6667C 21.8151 10.6667 23.7982 11.7778 25.1204 14.2222C 26.2221 16.6667 26.4425 19.7778 25.5611 23.7778L 25.3407 24.4444ZM 18.7301 24C 19.1708 21.5556 19.1708 19.5556 18.9504 18.2222C 18.5097 16.8889 17.408 16 15.6451 16C 14.5434 16 13.6619 16.2222 12.7805 16.6667C 11.8991 17.1111 11.238 17.7778 10.577 18.6667L 8.37344 29.3333C 8.5938 30 9.03452 30.6667 9.69558 31.1111C 10.3566 31.5556 11.2381 31.7778 12.3398 31.7778C 14.1027 31.7778 15.4248 31.1111 16.3062 30C 17.1876 28.8889 18.069 27.1111 18.5097 24.6667L 18.7301 24Z"/>
<path id="path6_fill" d="M 21.815 9.11111L 17.1876 9.11111L 17.1876 6C 16.7469 5.55556 16.3062 5.33333 15.6451 5.11111C 14.9841 4.88889 14.323 4.66667 13.4416 4.66667C 12.3398 4.66667 11.2381 4.88889 10.3566 5.55556C 9.47523 6 9.03451 6.66667 8.81415 7.55555C 8.5938 8.22222 8.81416 8.88889 9.47522 9.55556C 10.1363 10 11.238 10.4444 13.2212 10.8889C 16.3062 11.5556 18.2894 12.4444 19.6115 13.5556C 20.9336 14.6667 21.3743 16.4444 20.9336 18.4444C 20.4929 20.6667 19.1708 22.6667 16.9673 24C 14.7637 25.3333 11.8991 26.2222 8.81415 26.2222C 6.83097 26.2222 5.06814 26 3.74602 25.3333C 2.20354 24.6667 0.881409 24 -6.72467e-06 22.8889L 1.10176 17.3333L 5.94956 17.3333L 6.16991 20.6667C 6.61062 21.1111 7.05132 21.3333 7.71238 21.3333C 8.37344 21.5556 9.03451 21.5556 9.91592 21.5556C 11.238 21.5556 12.3398 21.3333 13.2212 20.8889C 14.1026 20.4444 14.5434 19.7778 14.7637 18.8889C 14.9841 18.2222 14.7637 17.5556 14.1027 16.8889C 13.4416 16.4444 12.3398 15.7778 10.3566 15.3333C 7.49204 14.6667 5.50885 13.7778 4.18672 12.6667C 2.8646 11.5556 2.42389 9.77778 2.8646 7.77778C 3.30531 5.55556 4.62743 3.77778 6.61061 2.22222C 8.5938 0.666667 11.2381 4.23855e-07 14.5434 4.23855e-07C 16.5266 4.23855e-07 18.2894 0.222222 20.0522 0.888888C 21.5947 1.33333 22.9168 2 23.7982 2.88889L 21.815 9.11111Z"/>
<path id="path7_fill" d="M 18.5097 37.3333C 28.7324 37.3333 37.0195 28.976 37.0195 18.6667C 37.0195 8.35735 28.7324 0 18.5097 0C 8.28709 0 0 8.35735 0 18.6667C 0 28.976 8.28709 37.3333 18.5097 37.3333Z"/>
<path id="path8_fill" d="M 18.5097 37.3333C 28.7324 37.3333 37.0195 28.976 37.0195 18.6667C 37.0195 8.35735 28.7324 0 18.5097 0C 8.28709 0 0 8.35735 0 18.6667C 0 28.976 8.28709 37.3333 18.5097 37.3333Z"/>
</defs>
</svg>
